Patient4_TMGait_0pt4_01_right_36_EMG.mot
version=1
nRows=36
nColumns=33
inDegrees=no
endheader
time	1LAddLong	2LGlutMax	3LGlutMed	4LIliopsoas	5LSemiMemb	6LBicFemLong	7LRecFem	8LVastMed	9LVastLat	10LGasMed	11LTibAnt	12lTibPost	13LPeroneusLong	14LSol	15LExtDigLong	16LFlexDigLong	17RAddLong	18RGlutMax	19RGlutMed	20RIliopsoas	21RSemiMemb	22RBicFemLong	23RRecFem	24RVastMed	25RVastLat	26RGasMed	27RTibAnt	28RTibPost	29RPeroneusLong	30RSol	31RExtDigLong	32RFlexDigLong
47.845	0.094452	0.03006	0.030518	-0.007172	0.049744	-0.021515	-0.083771	-0.001678	-0.016937	-0.030212	-0.00885	-0.000916	-0.02121	0.28625	-0.01236	0.005341	0.016327	-0.076141	-0.24231	0.004578	-0.040588	0.14526	-0.23377	0.003204	0.005646	0.002899	-0.13489	-0.31128	0.12695	-0.7283	0.003662	-0.003815
47.846	0.02243	-0.015106	0.031433	-0.001678	0.078125	-0.010071	-0.058136	-0.00946	-0.029449	-0.027161	-0.005951	0.007629	0.042419	0.33997	0.000458	0.000916	0.029602	-0.032501	0.077667	-0.025787	0.022736	0.26535	-0.20798	-0.0354	0	0.038147	-0.089874	-0.28946	0.19898	-0.64453	0.001526	-0.005493
47.847	-0.002899	-0.037079	0.027161	0.003967	0.054932	0.006409	-0.08606	-0.00473	0.008698	-0.0177	-0.015106	0.001373	0.053406	0.30823	-0.005493	-0.002594	0.024109	-0.069885	0.42358	-0.035858	0.28366	0.2179	-0.21286	-0.047455	-0.008545	0.041656	-0.074768	0.24078	0.28229	-0.64667	0.00351	-0.008392
47.848	0.002136	-0.10635	-0.005188	-0.009766	0.064087	0.018768	-0.20035	0.000763	0.072784	0.005646	-0.009918	0.002594	-0.007935	0.2179	0.005035	-0.017548	0.001678	-0.001678	0.066376	-0.006409	0.19913	0.2713	-0.21606	-0.045166	-0.000916	0.037994	-0.032043	0.54321	0.27329	0.18265	0.000458	-0.017395
47.849	0.00412	-0.094147	-0.02121	-0.000305	0.068359	0.041351	-0.32852	0.003357	0.14328	0.007324	-0.004272	0.000305	-0.024261	0.055847	0.005951	0.011139	-0.0177	-0.057678	-0.31998	0.023346	0.18051	0.31296	-0.18463	-0.011139	0.001526	-0.0177	0.027771	0.28	0.14221	1.1316	0.00351	-0.027771
47.85	-0.010529	-0.089417	-0.029144	0.011597	-0.007935	0.11749	-0.16388	0.001373	0.19745	0.011139	-0.009308	0.001984	-0.05249	-0.042267	0.00473	-0.001068	0	0.02243	-0.36179	-0.002899	0.29343	0.27634	-0.21759	0.005646	-0.020142	-0.023346	-0.006409	-0.032959	0.17273	0.92133	-0.003052	-0.022278
47.851	-0.023041	-0.034943	-0.03067	0.001373	-0.06134	0.13534	-0.028687	-0.005341	0.072479	0.006409	-0.004578	0.003967	-0.012207	-0.10956	0.013733	0.003357	0.011597	0.11047	-0.13077	-0.071106	0.094604	0.19486	-0.16327	0.025635	-0.033569	-0.044861	0.023804	-0.34958	-0.003662	0.73669	0.007629	-0.030823
47.852	-0.039673	0.041504	-0.031738	-0.003052	-0.042114	0.19928	0.13901	-0.001068	-0.11246	0.001373	-0.018921	0.007477	0.012512	-0.090332	0.029449	-0.023499	0.023499	0.10956	0.25345	-0.055542	0.25253	0.049591	-0.19959	0.007019	-0.011444	-0.049438	0.066223	-0.33234	-0.29495	0.70435	0.006256	-0.024109
47.853	-0.038757	0.10208	-0.026855	0.01236	-0.12222	0.090332	0.11841	0.015411	-0.09903	0.081024	-0.016022	0.006104	-0.019531	-0.064392	0.033112	-0.005188	0.058746	0.18158	0.15472	0.054474	0.22583	-0.1033	-0.20767	0.005646	-0.011902	-0.057983	0.069122	0.28854	-0.15961	0.36835	0.010986	-0.03479
47.854	-0.035553	0.18601	-0.052948	0.002441	-0.082703	-0.11917	0.050812	0.014648	-0.075836	0.14969	-0.007477	0.012665	-0.023499	-0.093689	0.041962	0.003052	0.049438	0.13809	0.04425	0.09903	0.21957	-0.08728	-0.17273	-0.077362	-0.036011	-0.069733	0.050354	0.13214	0.072021	-0.25726	0.003052	-0.022278
47.855	-0.019226	0.15335	-0.093842	-0.007324	-0.094604	-0.057678	-0.06424	0.01358	-0.048523	0.1918	-0.014343	0.007782	-0.038757	-0.11871	0.028992	0.005951	0.028534	0.099335	-0.085144	0.082703	0.17563	-0.059357	-0.1886	-0.093384	-0.042572	-0.070038	-0.008545	-0.022125	0.25406	-0.34576	0.008545	-0.009918
47.856	0.008087	0.13306	-0.13168	-0.019379	-0.081329	-0.066376	-0.15915	0.005646	0.048065	0.18631	-0.014038	0.011749	-0.032043	-0.024109	0.016785	0.014343	0.01358	0.13931	0.008392	0.050201	0.27725	-0.13855	-0.17059	-0.055847	-0.039825	-0.050354	-0.023956	-0.007629	0.11566	-0.024261	0.007935	-0.00824
47.857	0.019989	0.11139	-0.10757	0.001678	-0.041504	-0.09903	-0.15778	-0.007324	0.11551	-0.029907	-0.01297	0.006561	-0.030518	0.16098	0.007629	0.011902	0.012665	0.16953	-0.11185	0.037689	0.24536	-0.13458	-0.18906	-0.015717	-0.04715	-0.02594	0.007172	-0.01709	-0.037079	0.29373	0.006714	-0.015411
47.858	0.026398	0.072632	-0.022583	0.009155	0.020447	-0.085297	-0.14603	-0.010834	0.18082	-0.22461	-0.01358	0.005951	-0.029297	0.19134	0.006866	-0.007782	0.024719	0.20996	0.17929	0.000305	-0.012665	-0.11627	-0.23789	0.018158	-0.016937	0.002289	0.023346	0.055389	-0.14938	0.3479	0.014496	-0.021667
47.859	0.012817	0.027771	-0.014954	0.018005	0.083923	-0.020294	-0.095978	-0.005341	0.21271	-0.1651	-0.00351	0.013123	-0.018616	0.15854	0.00061	0.008698	-0.001373	0.1831	0.35019	-0.033417	-0.21729	-0.011749	-0.26672	-0.007629	-0.00351	0.072632	0.018311	0.000763	-0.15274	0.11246	0.00824	-0.018768
47.86	0.010071	-0.028076	0.023956	0.013123	0.083771	-0.06012	-0.062256	-0.007782	0.19775	-0.097046	-0.014954	0.011749	-0.087891	0.13168	-0.003052	-0.005035	-0.018158	0.22919	0.37628	-0.04364	-0.1947	0.048981	-0.21484	0.037079	-0.030365	0.088196	0.061798	-0.028687	-0.17059	-0.13031	0.014038	-0.017242
47.861	0.006561	-0.050812	-0.000763	0.034332	0.049286	-0.11215	-0.015717	-0.001068	0.024872	-0.060883	0.001373	0.011902	-0.12405	0.11658	0.004883	-0.001831	-0.031738	0.22842	0.1149	-0.0177	-0.27741	0.20462	-0.20233	0.023193	-0.020905	0.072327	0.087433	-0.17792	-0.14557	-0.25543	0.01297	-0.023499
47.862	0.003357	0.034943	0.001526	0.011749	0.072632	-0.04715	-0.019989	-0.000763	-0.11734	-0.027161	-0.007629	0.007477	-0.059814	0.11536	0.020447	0.001373	-0.029144	0.20447	-0.039063	0.000916	0.3038	0.040588	-0.24506	0.083771	-0.028839	0.033417	0.026398	0.015259	-0.037994	-0.32471	0.014343	-0.028381
47.863	-0.001984	-0.00061	-0.008698	0.003357	0.053711	0.037537	-0.039368	0.005188	-0.15579	-0.014496	0.001984	0.024567	0.30792	0.13748	0.040588	-0.001221	-0.001068	0.15076	-0.18601	-0.026703	0.30868	-0.12207	-0.22964	0.064392	-0.013885	0.045776	-0.014496	-0.000916	-0.021667	-0.36407	0.012512	-0.035553
47.864	-0.00946	0.014496	-0.024414	0.019836	-0.018616	-0.061798	-0.065308	0.005341	-0.11353	-0.009155	-0.012207	0.026398	0.27405	0.14252	0.038452	-0.012512	0.016632	0.16022	-0.21988	-0.041351	0.17227	-0.014954	-0.26032	0.025787	-0.0177	0.053101	-0.053406	-0.042419	0.13382	-0.29556	0.006866	-0.038147
47.865	-0.001373	0.001526	-0.001984	-0.002594	-0.082245	-0.18555	-0.11917	0.00412	-0.084381	-0.019989	-0.02243	0.025787	0.28519	0.15228	0.042877	-0.005798	0.016479	0.085297	-0.14008	-0.072784	0.029907	0.072174	-0.22263	0.01297	-0.002289	-0.018616	-0.036163	-0.030823	0.21759	-0.18478	0.015411	-0.040283
47.866	0.027924	0.01297	0.012665	-0.010223	-0.090942	-0.056763	-0.13519	0.00351	-0.063477	0.003662	-0.033569	0.037994	0.32303	0.11414	0.007782	-0.015564	0.028381	0.07782	0.073395	-0.076294	0.048218	0.057831	-0.24063	-0.003357	-0.022125	-0.015869	-0.028076	-0.008087	0.22201	0.15579	0.014343	-0.03479
47.867	0.030212	0.061493	-0.002289	0.005646	-0.013123	0.03891	-0.086823	0.006256	-0.037689	0.03006	-0.031891	0.035095	0.20081	0.0737	0.000763	-0.020447	0.02533	0.043488	-0.038452	-0.029144	-0.014801	0.046844	-0.24719	-0.019073	-0.008392	-0.005035	0.006256	-0.028839	0.14526	0.48492	0.015869	-0.0354
47.868	0.026855	0.079041	0.013885	-0.007477	0.063934	0.027924	-0.094604	0.00351	-0.057983	0.028687	-0.018158	0.050049	0.33234	0.096588	-0.00061	-0.016479	0.03006	0.050507	0.080261	0.014648	-0.056458	0.072021	-0.26199	0.010681	-0.021057	-0.024414	0.022736	-0.034485	-0.067902	0.36468	0.015717	-0.040894
47.869	0.034332	0.09201	0.038147	0.012817	0.11383	0.000153	-0.10849	0.009766	-0.00946	-0.001373	0.000153	0.057678	0.2388	0.14755	0.02533	-0.00824	0.027924	0.032959	0.12634	0.047302	0.04303	0.12528	-0.24689	-0.021362	-0.016785	-0.02655	0.008545	-0.037079	-0.2536	0.1001	0.014496	-0.043945
47.87	0.020599	0.091858	0.048065	0.005341	0.094757	-0.00885	-0.12741	0.039215	0.14603	-0.039978	-0.007324	0.072479	-0.41412	0.21744	0.08606	-0.005798	0.030365	-0.011292	-0.013275	0.024414	0.20523	0.038452	-0.26886	-0.051117	-0.023956	-0.057068	-0.006256	-0.027771	-0.17059	-0.14267	0.015869	-0.032349
47.871	0.004883	0.159	0.056915	-0.013123	0.08316	0.001678	-0.11673	0.042114	0.16571	-0.059814	-0.023956	0.075836	-0.39169	0.18829	0.035706	0.013885	0.022125	-0.034332	-0.1442	-0.017548	0.034485	-0.053253	-0.24506	-0.068359	-0.02121	-0.10284	0.016632	-0.02182	-0.11032	-0.17181	0.016327	-0.027313
47.872	0.004272	0.13458	0.061188	-0.001373	0.027618	0.1886	-0.05188	0.0354	0.18356	-0.015259	-0.02182	0.071259	-0.11795	-0.029297	-0.091705	0.015259	0.01236	-0.065002	-0.14206	0.007172	-0.21133	-0.032043	-0.28229	-0.001068	-0.014496	-0.16647	0.014954	-0.025787	0.12268	-0.081635	0.014191	-0.0354
47.873	-0.011749	0.10269	0.039978	0.010986	-0.046844	0.42648	-0.084381	0.037537	0.063934	0.036621	-0.020142	0.093689	-0.1088	-0.16388	-0.095215	0.021515	0.026245	-0.087433	-0.19882	0.05661	-0.24551	-0.029602	-0.25559	0.060883	0.001068	-0.20401	-0.036011	-0.033264	0.2327	0.16388	0.01236	-0.021515
47.874	-0.022583	0.11566	-0.007172	0.019989	-0.12131	0.42847	-0.16251	0.039215	0.052643	0.01358	-0.016174	0.10056	0.089417	-0.10223	0.013428	0.013428	0.012207	-0.050201	-0.075073	0.04715	0.28473	-0.052185	-0.28427	0.053406	0.021973	-0.13351	-0.066833	0.032196	0.065002	0.37628	0.013733	-0.005493
47.875	-0.025482	0.10422	-0.013123	0.021515	-0.13275	0.38269	-0.11688	0.024109	0.097656	0.009613	-0.007019	0.10635	0.14969	-0.13412	-0.024261	0.044403	-0.031738	-0.017548	-0.070953	0.069885	0.38269	-0.15595	-0.32883	0.000916	0.009003	-0.039825	-0.046692	0.022736	-0.048828	0.089874	0.014343	-0.007629
47.876	-0.023804	0.10361	0.018311	0.016022	-0.003052	0.28229	-0.024109	0.005798	0.16632	-0.007782	-0.004425	0.10178	0.084839	-0.066376	-0.000916	0.052795	-0.04715	-0.040588	-0.19089	0.07782	0.26428	-0.17914	-0.32105	0.012665	0.019836	0.03479	-0.061798	-0.001221	-0.15243	-0.061188	0.016174	-0.016479
47.877	-0.015259	0.062256	0.075073	0.004883	-0.039063	0.20538	0.065002	-0.007172	0.1178	-0.000153	0.001221	0.090637	-0.34439	0.012054	0.039215	0.05722	-0.052185	-0.039368	-0.14603	0.050354	0.13458	-0.15503	-0.26337	0.016937	0.016785	0.005341	-0.052643	-0.009003	-0.14496	-0.19623	0.03006	-0.019379
47.878	0.003815	0.056915	0.016174	0.005035	-0.005035	0.014954	0.098267	-0.00824	-0.042419	0.003662	-0.026245	0.076447	-0.22278	0.026398	-0.021362	0.054016	-0.06485	0.031281	-0.077362	0.016022	0.059967	-0.10162	-0.33417	0.12619	0.056305	0.06134	-0.027161	-0.002747	-0.041046	-0.29098	0.013885	-0.021057
47.879	0.018921	-0.039978	-0.024109	-0.014648	0.043945	-0.068665	0.063629	0.010376	-0.11765	0.072021	-0.003967	0.06485	-0.35584	0.078583	0.011292	0.054321	-0.053101	0.073547	-0.18707	-0.013123	0.12619	-0.011902	-0.37857	0.10407	0.052032	0.16922	-0.041046	0.007782	0.027771	-0.098877	0.016632	-0.014801
47.88	0.031738	-0.10635	-0.041351	-0.000458	0.035706	-0.33752	-0.033264	0.025787	-0.010223	0.11749	0.020752	0.049286	-0.20905	0.091248	0.021057	0.033112	0.002899	0.014343	-0.067596	0.018768	0.080719	0.10468	-0.27893	-0.014191	0.031891	0.12543	-0.032959	-0.001068	0.28961	0.17731	0.01297	-0.014801
